HIERARCHY
ROOT Hips
{
  OFFSET 5.80788e-005 67.184 3.4734
  CHANNELS 6 Xposition Yposition Zposition Zrotation Xrotation Yrotation
  JOINT Chest
  {
    OFFSET 0 8.7983 -4.7612
    CHANNELS 6 Xposition Yposition Zposition Zrotation Xrotation Yrotation
    JOINT Chest2
    {
      OFFSET 0 8.0291 0.4195
      CHANNELS 6 Xposition Yposition Zposition Zrotation Xrotation Yrotation
      JOINT Chest3
      {
        OFFSET 0 9.9351 -2.2114
        CHANNELS 6 Xposition Yposition Zposition Zrotation Xrotation Yrotation
        JOINT Neck
        {
          OFFSET 0 22.3885 -0.4656
          CHANNELS 6 Xposition Yposition Zposition Zrotation Xrotation Yrotation
          JOINT Head
          {
            OFFSET -0.0001 12.643 3.4389
            CHANNELS 6 Xposition Yposition Zposition Zrotation Xrotation Yrotation
            End Site
            {
              OFFSET 0.0001 17.6655 0.5274
            }
          }
        }
        JOINT LeftCollar
        {
          OFFSET 2.2603 21.606 7.4023
          CHANNELS 6 Xposition Yposition Zposition Zrotation Xrotation Yrotation
          JOINT LeftShoulder
          {
            OFFSET 13.5163 -1.1332 -5.0146
            CHANNELS 6 Xposition Yposition Zposition Zrotation Xrotation Yrotation
            JOINT LeftElbow
            {
              OFFSET -0.0995 -28.05 -0.2431
              CHANNELS 6 Xposition Yposition Zposition Zrotation Xrotation Yrotation
              JOINT LeftWrist
              {
                OFFSET 0.0679 -23.3996 -0.1402
                CHANNELS 6 Xposition Yposition Zposition Zrotation Xrotation Yrotation
                JOINT LeftFinger1
                {
                  OFFSET 0.7932 -9.069 2.5189
                  CHANNELS 6 Xposition Yposition Zposition Zrotation Xrotation Yrotation
                  JOINT LeftFinger11
                  {
                    OFFSET -0.8272 -3.3923 0.5977
                    CHANNELS 6 Xposition Yposition Zposition Zrotation Xrotation Yrotation
                    JOINT LeftFinger12
                    {
                      OFFSET -0.5649 -2.3158 0.4082
                      CHANNELS 6 Xposition Yposition Zposition Zrotation Xrotation Yrotation
                      End Site
                      {
                        OFFSET -0.4919 -1.6479 0.2673
                      }
                    }
                  }
                }
                JOINT LeftFinger2
                {
                  OFFSET 0.9159 -9.2044 0.2193
                  CHANNELS 6 Xposition Yposition Zposition Zrotation Xrotation Yrotation
                  JOINT LeftFinger21
                  {
                    OFFSET 0.0117 -4.1944 -0.0248
                    CHANNELS 6 Xposition Yposition Zposition Zrotation Xrotation Yrotation
                    JOINT LeftFinger22
                    {
                      OFFSET 0.0071 -2.3249 -0.0142
                      CHANNELS 6 Xposition Yposition Zposition Zrotation Xrotation Yrotation
                      End Site
                      {
                        OFFSET -0.1475 -2.0882 0.0028
                      }
                    }
                  }
                }
                JOINT LeftFinger3
                {
                  OFFSET 0.6113 -8.7231 -2.0637
                  CHANNELS 6 Xposition Yposition Zposition Zrotation Xrotation Yrotation
                  JOINT LeftFinger31
                  {
                    OFFSET -0.1927 -3.8059 -0.2383
                    CHANNELS 6 Xposition Yposition Zposition Zrotation Xrotation Yrotation
                    JOINT LeftFinger32
                    {
                      OFFSET -0.1091 -2.1688 -0.1362
                      CHANNELS 6 Xposition Yposition Zposition Zrotation Xrotation Yrotation
                      End Site
                      {
                        OFFSET -0.2358 -1.9176 -0.0906
                      }
                    }
                  }
                }
                JOINT LeftFinger4
                {
                  OFFSET -0.6151 -8.0947 -3.5641
                  CHANNELS 6 Xposition Yposition Zposition Zrotation Xrotation Yrotation
                  JOINT LeftFinger41
                  {
                    OFFSET -0.4882 -2.341 -0.6462
                    CHANNELS 6 Xposition Yposition Zposition Zrotation Xrotation Yrotation
                    JOINT LeftFinger42
                    {
                      OFFSET -0.3575 -1.7167 -0.4742
                      CHANNELS 6 Xposition Yposition Zposition Zrotation Xrotation Yrotation
                      End Site
                      {
                        OFFSET -0.4187 -1.5237 -0.3496
                      }
                    }
                  }
                }
                JOINT LeftFinger0
                {
                  OFFSET -1.42 -1.8761 1.4223
                  CHANNELS 6 Xposition Yposition Zposition Zrotation Xrotation Yrotation
                  JOINT LeftFinger01
                  {
                    OFFSET -1.1471 -3.4929 2.6334
                    CHANNELS 6 Xposition Yposition Zposition Zrotation Xrotation Yrotation
                    JOINT LeftFinger02
                    {
                      OFFSET -0.823 -2.3 1.6571
                      CHANNELS 6 Xposition Yposition Zposition Zrotation Xrotation Yrotation
                      End Site
                      {
                        OFFSET -0.5822 -1.6914 1.1582
                      }
                    }
                  }
                }
              }
            }
          }
        }
        JOINT RightCollar
        {
          OFFSET -2.2603 21.606 7.4023
          CHANNELS 6 Xposition Yposition Zposition Zrotation Xrotation Yrotation
          JOINT RightShoulder
          {
            OFFSET -13.5187 -1.1334 -5.0155
            CHANNELS 6 Xposition Yposition Zposition Zrotation Xrotation Yrotation
            JOINT RightElbow
            {
              OFFSET 0.0994 -28.0499 -0.2431
              CHANNELS 6 Xposition Yposition Zposition Zrotation Xrotation Yrotation
              JOINT RightWrist
              {
                OFFSET -0.0679 -23.3996 -0.1402
                CHANNELS 6 Xposition Yposition Zposition Zrotation Xrotation Yrotation
                JOINT RightFinger1
                {
                  OFFSET -0.7932 -9.0691 2.5189
                  CHANNELS 6 Xposition Yposition Zposition Zrotation Xrotation Yrotation
                  JOINT RightFinger11
                  {
                    OFFSET 0.8272 -3.3923 0.5977
                    CHANNELS 6 Xposition Yposition Zposition Zrotation Xrotation Yrotation
                    JOINT RightFinger12
                    {
                      OFFSET 0.565 -2.3158 0.4082
                      CHANNELS 6 Xposition Yposition Zposition Zrotation Xrotation Yrotation
                      End Site
                      {
                        OFFSET 0.4919 -1.6479 0.2673
                      }
                    }
                  }
                }
                JOINT RightFinger2
                {
                  OFFSET -0.916 -9.2044 0.2193
                  CHANNELS 6 Xposition Yposition Zposition Zrotation Xrotation Yrotation
                  JOINT RightFinger21
                  {
                    OFFSET -0.0117 -4.1944 -0.0248
                    CHANNELS 6 Xposition Yposition Zposition Zrotation Xrotation Yrotation
                    JOINT RightFinger22
                    {
                      OFFSET -0.0071 -2.3249 -0.0142
                      CHANNELS 6 Xposition Yposition Zposition Zrotation Xrotation Yrotation
                      End Site
                      {
                        OFFSET 0.1475 -2.0882 0.0028
                      }
                    }
                  }
                }
                JOINT RightFinger3
                {
                  OFFSET -0.6113 -8.7231 -2.0637
                  CHANNELS 6 Xposition Yposition Zposition Zrotation Xrotation Yrotation
                  JOINT RightFinger31
                  {
                    OFFSET 0.1927 -3.8059 -0.2383
                    CHANNELS 6 Xposition Yposition Zposition Zrotation Xrotation Yrotation
                    JOINT RightFinger32
                    {
                      OFFSET 0.1091 -2.1688 -0.1362
                      CHANNELS 6 Xposition Yposition Zposition Zrotation Xrotation Yrotation
                      End Site
                      {
                        OFFSET 0.2358 -1.9176 -0.0906
                      }
                    }
                  }
                }
                JOINT RightFinger4
                {
                  OFFSET 0.6151 -8.0947 -3.564
                  CHANNELS 6 Xposition Yposition Zposition Zrotation Xrotation Yrotation
                  JOINT RightFinger41
                  {
                    OFFSET 0.4882 -2.341 -0.6462
                    CHANNELS 6 Xposition Yposition Zposition Zrotation Xrotation Yrotation
                    JOINT RightFinger42
                    {
                      OFFSET 0.3574 -1.7166 -0.4742
                      CHANNELS 6 Xposition Yposition Zposition Zrotation Xrotation Yrotation
                      End Site
                      {
                        OFFSET 0.4187 -1.5237 -0.3496
                      }
                    }
                  }
                }
                JOINT RightFinger0
                {
                  OFFSET 1.4199 -1.8761 1.4221
                  CHANNELS 6 Xposition Yposition Zposition Zrotation Xrotation Yrotation
                  JOINT RightFinger01
                  {
                    OFFSET 1.1472 -3.4929 2.6336
                    CHANNELS 6 Xposition Yposition Zposition Zrotation Xrotation Yrotation
                    JOINT RightFinger02
                    {
                      OFFSET 0.8229 -2.3 1.6571
                      CHANNELS 6 Xposition Yposition Zposition Zrotation Xrotation Yrotation
                      End Site
                      {
                        OFFSET 0.5822 -1.6914 1.1582
                      }
                    }
                  }
                }
              }
            }
          }
        }
      }
    }
  }
  JOINT RightHip
  {
    OFFSET -9.412 3.9771 -0.7758
    CHANNELS 6 Xposition Yposition Zposition Zrotation Xrotation Yrotation
    JOINT RightKnee
    {
      OFFSET -0.7531 -40.938 0
      CHANNELS 6 Xposition Yposition Zposition Zrotation Xrotation Yrotation
      JOINT RightAnkle
      {
        OFFSET 0 -40.1986 0
        CHANNELS 6 Xposition Yposition Zposition Zrotation Xrotation Yrotation
        JOINT RightToe
        {
          OFFSET 0 -4.4182 9.239
          CHANNELS 6 Xposition Yposition Zposition Zrotation Xrotation Yrotation
          End Site
          {
            OFFSET 0 0 6.1981
          }
        }
      }
    }
  }
  JOINT LeftHip
  {
    OFFSET 9.4119 3.9773 -0.7758
    CHANNELS 6 Xposition Yposition Zposition Zrotation Xrotation Yrotation
    JOINT LeftKnee
    {
      OFFSET 0.7532 -40.9383 0
      CHANNELS 6 Xposition Yposition Zposition Zrotation Xrotation Yrotation
      JOINT LeftAnkle
      {
        OFFSET 0 -40.1986 0
        CHANNELS 6 Xposition Yposition Zposition Zrotation Xrotation Yrotation
        JOINT LeftToe
        {
          OFFSET 0 -4.4182 9.239
          CHANNELS 6 Xposition Yposition Zposition Zrotation Xrotation Yrotation
          End Site
          {
            OFFSET 0 0 6.1981
          }
        }
      }
    }
  }
}
MOTION
Frames:	4
Frame Time:	0.0333333
5.80788e-005 67.184 3.4734 0 0 -0 0 8.7983 -4.7612 0 0 -0 0 8.0291 0.4195 0 0 -0 0 9.9351 -2.2114 0 0 -0 0 22.3885 -0.4656 0 0 -0 -0.0001 12.643 3.4389 0 0 -0 2.2603 21.606 7.4023 0 0 -12.5014 13.5163 -1.1332 -5.0146 88.1196 14.2451 10.6914 -0.0995 -28.05 -0.2431 -0.00160068 -0.00239207 0.000740045 0.0679 -23.3996 -0.1402 -8.4365e-005 7.00714e-005 -9.52055e-007 0.7932 -9.069 2.5189 9.93923e-017 -1.98785e-016 -1.59028e-015 -0.8272 -3.3923 0.5977 9.93923e-017 -5.96354e-016 -1.59028e-015 -0.5649 -2.3158 0.4082 -9.93923e-017 -5.96354e-016 -1.59028e-015 0.9159 -9.2044 0.2193 9.93923e-017 -1.98785e-016 -1.59028e-015 0.0117 -4.1944 -0.0248 -0.0128176 0.00232552 8.52707e-005 0.0071 -2.3249 -0.0142 9.93923e-017 5.96354e-016 -0 0.6113 -8.7231 -2.0637 9.93923e-017 -1.98785e-016 -1.59028e-015 -0.1927 -3.8059 -0.2383 -0.0160551 0.00299681 0.000857156 -0.1091 -2.1688 -0.1362 -2.48481e-016 0 3.18055e-015 -0.6151 -8.0947 -3.5641 9.93923e-017 -1.98785e-016 -1.59028e-015 -0.4882 -2.341 -0.6462 -0.0125865 0.0031206 0.00282719 -0.3575 -1.7167 -0.4742 0 1.98785e-016 -0 -1.42 -1.8761 1.4223 9.93923e-017 -1.98785e-016 -1.59028e-015 -1.1471 -3.4929 2.6334 9.93923e-017 -5.96354e-016 -1.59028e-015 -0.823 -2.3 1.6571 -9.93923e-017 -5.96354e-016 -1.59028e-015 -2.2603 21.606 7.4023 -0.865644 0.16582 7.03859 -13.5187 -1.1334 -5.0155 -88.0329 10.2057 -10.5567 0.0994 -28.0499 -0.2431 0.0015593 -0.00248883 -0.000788628 -0.0679 -23.3996 -0.1402 7.87605e-005 4.10553e-005 1.24965e-005 -0.7932 -9.0691 2.5189 -3.97569e-016 -7.95139e-016 3.18055e-015 0.8272 -3.3923 0.5977 -1.98785e-016 -3.97569e-016 3.18055e-015 0.565 -2.3158 0.4082 -1.98785e-016 0 3.18055e-015 -0.916 -9.2044 0.2193 -3.97569e-016 -7.95139e-016 3.18055e-015 -0.0117 -4.1944 -0.0248 0.0129473 0.00231697 -8.70038e-005 -0.0071 -2.3249 -0.0142 9.93923e-017 -7.95139e-016 1.59028e-015 -0.6113 -8.7231 -2.0637 -3.97569e-016 -7.95139e-016 3.18055e-015 0.1927 -3.8059 -0.2383 0.0163314 0.00303369 -0.000872333 0.1091 -2.1688 -0.1362 3.97569e-016 7.95139e-016 -3.18055e-015 0.6151 -8.0947 -3.564 -3.97569e-016 -7.95139e-016 3.18055e-015 0.4882 -2.341 -0.6462 0.0145763 0.00367772 -0.00326275 0.3574 -1.7166 -0.4742 9.93923e-017 -3.97569e-016 -0 1.4199 -1.8761 1.4221 -3.97569e-016 -7.95139e-016 3.18055e-015 1.1472 -3.4929 2.6336 -1.98785e-016 -3.97569e-016 3.18055e-015 0.8229 -2.3 1.6571 -1.98785e-016 0 3.18055e-015 -9.412 3.9771 -0.7758 3.42485 1.36937 -0.0640303 -0.7531 -40.938 0 0.000136572 0.69354 0.00145564 1.77636e-015 -40.1986 -1.11022e-016 -3.42573 -2.06297 -0.0607933 8.88178e-016 -4.4182 9.239 -3.19502e-024 0 -1.48106e-024 9.4119 3.9773 -0.7758 -3.42498 1.36123 0.0639712 0.7532 -40.9383 2.22045e-016 -6.769e-005 0.712612 -0.0012277 8.88179e-016 -40.1986 0 3.42582 -2.07388 0.0612819 -8.88178e-016 -4.4182 9.239 2.55305e-023 0 -2.31416e-026 
7.48613 20.5296 3.76105 66.6666 8.53774e-007 5.18641 0 8.7983 -4.7612 0.138888 4.05126 -0.123216 3.55271e-015 8.0291 0.4195 0.287756 8.10219 -0.257291 3.55271e-015 9.9351 -2.2114 0.287764 8.10222 -0.257294 0 22.3885 -0.4656 0.0153489 5.89967 -0.00420571 -0.0001 12.643 3.4389 -9.6781 7.21901 1.66429 2.2603 21.606 7.4023 -25.1874 4.09004 -26.9954 13.5163 -1.1332 -5.0146 74.4445 -16.035 9.12588 -0.0995 -28.05 -0.2431 -19.6297 -4.2894 -12.1547 0.0679 -23.3996 -0.1402 -5.22152 0.873818 -0.120505 0.7932 -9.069 2.5189 -3.53113e-031 3.18055e-015 6.36111e-015 -0.8272 -3.3923 0.5977 3.18055e-015 -1.59028e-015 9.54166e-015 -0.5649 -2.3158 0.4082 3.18055e-015 1.59028e-015 3.18055e-015 0.9159 -9.2044 0.2193 -3.53113e-031 3.18055e-015 6.36111e-015 0.0117 -4.1944 -0.0248 -0.0128042 0.00231893 8.2432e-005 0.0071 -2.3249 -0.0142 -1.59028e-015 0 -9.54166e-015 0.6113 -8.7231 -2.0637 -3.53113e-031 3.18055e-015 6.36111e-015 -0.1927 -3.8059 -0.2383 -0.0160677 0.00299584 0.000859909 -0.1091 -2.1688 -0.1362 -6.36111e-015 1.59028e-015 3.18055e-015 -0.6151 -8.0947 -3.5641 -3.53113e-031 3.18055e-015 6.36111e-015 -0.4882 -2.341 -0.6462 -0.0126024 0.00312782 0.00283079 -0.3575 -1.7167 -0.4742 5.25946e-007 1.79018e-006 1.67641e-006 -1.42 -1.8761 1.4223 -3.53113e-031 3.18055e-015 6.36111e-015 -1.1471 -3.4929 2.6334 3.18055e-015 -1.59028e-015 9.54166e-015 -0.823 -2.3 1.6571 3.18055e-015 1.59028e-015 3.18055e-015 -2.2603 21.606 7.4023 -1.31806 3.47613 3.11684 -13.5187 -1.1334 -5.0155 -24.0813 24.1183 -19.1053 0.0994 -28.0499 -0.2431 38.3884 -73.8685 42.9994 -0.0679 -23.3996 -0.1402 -3.36484 -5.8555 -10.6057 -0.7932 -9.0691 2.5189 1.22801e-005 1.72301e-006 -6.79223e-006 0.8272 -3.3923 0.5977 -2.1204e-006 7.70239e-006 3.13329e-006 0.565 -2.3158 0.4082 2.84277e-006 3.43397e-006 3.17662e-006 -0.916 -9.2044 0.2193 1.22801e-005 1.72301e-006 -6.79223e-006 -0.0117 -4.1944 -0.0248 0.0129288 0.00231937 -8.4527e-005 -0.0071 -2.3249 -0.0142 2.84259e-006 3.09262e-006 3.17673e-006 -0.6113 -8.7231 -2.0637 1.22801e-005 1.72301e-006 -6.79223e-006 0.1927 -3.8059 -0.2383 0.0163203 0.00303929 -0.000871513 0.1091 -2.1688 -0.1362 -9.49189e-007 1.09322e-005 1.12245e-006 0.6151 -8.0947 -3.564 1.22801e-005 1.72301e-006 -6.79223e-006 0.4882 -2.341 -0.6462 0.014588 0.00368473 -0.00326291 0.3574 -1.7166 -0.4742 5.30699e-006 1.29459e-006 -1.28932e-006 1.4199 -1.8761 1.4221 1.22801e-005 1.72301e-006 -6.79223e-006 1.1472 -3.4929 2.6336 -2.1204e-006 7.70239e-006 3.13329e-006 0.8229 -2.3 1.6571 2.84277e-006 3.43397e-006 3.17662e-006 -9.412 3.9771 -0.7758 -12.5838 -40.5428 -22.2903 -0.7531 -40.938 3.55271e-015 4.03933 55.408 -4.97556 3.55271e-015 -40.1986 0 -5.95997 5.7906 -0.699986 0 -4.4182 9.239 -1.46109e-005 -5.87782e-006 -1.64601e-007 9.4119 3.9773 -0.7758 12.0389 -46.3033 41.5676 0.7532 -40.9383 3.55271e-015 -60.1465 73.3538 66.8104 -1.77636e-015 -40.1986 0 3.02478 7.41542 -5.0233 8.88178e-015 -4.4182 9.239 2.69716e-006 3.1881e-006 -2.28557e-006 
8.01154 1.47194 3.95119 96.6667 0 7.52028 9.71445e-017 8.7983 -4.7612 0.199633 5.90269 -0.185075 -1.38778e-017 8.0291 0.4195 0.421958 11.8047 -0.394115 -1.59595e-016 9.9351 -2.2114 0.42195 11.8047 -0.394115 -5.27356e-016 22.3885 -0.4656 -0.0544542 8.68164 0.0147695 -0.0001 12.643 3.4389 -14.2762 10.4595 2.46067 2.2603 21.606 7.4023 -35.5205 5.51641 -33.1116 13.5163 -1.1332 -5.0146 69.4023 -30.0915 8.88912 -0.0995 -28.05 -0.2431 -29.4776 -6.93419 -17.2331 0.0679 -23.3996 -0.1402 -6.96078 1.55431 -0.130557 0.7932 -9.069 2.5189 -1.59028e-015 -1.59028e-015 -6.36111e-015 -0.8272 -3.3923 0.5977 4.77083e-015 7.95139e-015 3.18055e-015 -0.5649 -2.3158 0.4082 3.53113e-031 3.18055e-015 -6.36111e-015 0.9159 -9.2044 0.2193 -1.59028e-015 -1.59028e-015 -6.36111e-015 0.0117 -4.1944 -0.0248 -0.0128164 0.00233057 8.82118e-005 0.0071 -2.3249 -0.0142 1.59028e-015 -7.95139e-015 -3.18055e-015 0.6113 -8.7231 -2.0637 -1.59028e-015 -1.59028e-015 -6.36111e-015 -0.1927 -3.8059 -0.2383 -0.0160386 0.00299253 0.00086807 -0.1091 -2.1688 -0.1362 -8.82781e-032 1.59028e-015 3.18055e-015 -0.6151 -8.0947 -3.5641 -1.59028e-015 -1.59028e-015 -6.36111e-015 -0.4882 -2.341 -0.6462 -0.0126301 0.00312379 0.00283785 -0.3575 -1.7167 -0.4742 -4.77083e-015 -3.18055e-015 -3.18055e-015 -1.42 -1.8761 1.4223 -1.59028e-015 -1.59028e-015 -6.36111e-015 -1.1471 -3.4929 2.6334 4.77083e-015 7.95139e-015 3.18055e-015 -0.823 -2.3 1.6571 3.53113e-031 3.18055e-015 -6.36111e-015 -2.2603 21.606 7.4023 -1.66044 5.28571 1.18092 -13.5187 -1.1334 -5.0155 5.09344 28.9857 -21.2079 0.0994 -28.0499 -0.2431 155.594 -65.1295 162.809 -0.0679 -23.3996 -0.1402 -4.85709 -8.92166 -15.432 -0.7932 -9.0691 2.5189 3.18055e-015 9.54166e-015 1.59028e-015 0.8272 -3.3923 0.5977 1.59028e-015 0 3.97569e-016 0.565 -2.3158 0.4082 1.59028e-015 -9.54166e-015 -0 -0.916 -9.2044 0.2193 3.18055e-015 9.54166e-015 1.59028e-015 -0.0117 -4.1944 -0.0248 0.0129411 0.00232369 -8.01784e-005 -0.0071 -2.3249 -0.0142 -2.1815e-007 9.5364e-007 -3.42861e-006 -0.6113 -8.7231 -2.0637 3.18055e-015 9.54166e-015 1.59028e-015 0.1927 -3.8059 -0.2383 0.0163531 0.00305039 -0.000873401 0.1091 -2.1688 -0.1362 1.59028e-015 1.27222e-014 -1.19271e-015 0.6151 -8.0947 -3.564 3.18055e-015 9.54166e-015 1.59028e-015 0.4882 -2.341 -0.6462 0.0145887 0.00368902 -0.00325852 0.3574 -1.7166 -0.4742 6.49074e-006 -3.68953e-006 -4.01659e-006 1.4199 -1.8761 1.4221 3.18055e-015 9.54166e-015 1.59028e-015 1.1472 -3.4929 2.6336 1.59028e-015 0 3.97569e-016 0.8229 -2.3 1.6571 1.59028e-015 -9.54166e-015 -0 -9.412 3.9771 -0.7758 -36.9526 -54.6785 -45.0704 -0.7531 -40.938 1.11022e-015 21.3887 80.7968 -22.1741 1.77636e-015 -40.1986 0 -7.18293 8.82448 -1.13362 0 -4.4182 9.239 0 6.36111e-015 -0 9.4119 3.9773 -0.7758 43.8054 -50.962 77.918 0.7532 -40.9383 -3.10862e-015 -139.512 55.9079 143.05 -7.10543e-015 -40.1986 7.10543e-015 3.34119 12.546 -6.74377 0 -4.4182 9.239 -9.29603e-007 2.92491e-006 2.29805e-006 
8.35705 5.67448 4.01696 90 0 7.00164 8.88179e-016 8.7983 -4.7612 0.185975 5.55378 -0.171873 8.88178e-016 8.0291 0.4195 0.39155 11.107 -0.364547 0 9.9351 -2.2114 0.391562 11.107 -0.364546 8.88178e-016 22.3885 -0.4656 -0.209661 8.34595 0.0571022 -0.0001 12.643 3.4389 -13.4767 9.73262 2.33963 2.2603 21.606 7.4023 -32.481 4.75479 -30.7273 13.5163 -1.1332 -5.0146 70.457 -27.4707 8.96718 -0.0995 -28.05 -0.2431 -29.686 -7.73858 -16.1012 0.0679 -23.3996 -0.1402 -5.21451 2.03635 -0.0928287 0.7932 -9.069 2.5189 -4.77083e-015 3.18055e-015 -9.54166e-015 -0.8272 -3.3923 0.5977 -6.36111e-015 1.59028e-015 -3.18055e-015 -0.5649 -2.3158 0.4082 4.77083e-015 -3.18055e-015 -0 0.9159 -9.2044 0.2193 -4.77083e-015 3.18055e-015 -9.54166e-015 0.0117 -4.1944 -0.0248 -0.0127853 0.00232984 7.94262e-005 0.0071 -2.3249 -0.0142 1.59028e-015 3.18055e-015 -0 0.6113 -8.7231 -2.0637 -4.77083e-015 3.18055e-015 -9.54166e-015 -0.1927 -3.8059 -0.2383 -0.0160128 0.00299339 0.000859378 -0.1091 -2.1688 -0.1362 -3.18055e-015 1.59028e-015 3.18055e-015 -0.6151 -8.0947 -3.5641 -4.77083e-015 3.18055e-015 -9.54166e-015 -0.4882 -2.341 -0.6462 -0.0125008 0.00310458 0.00280759 -0.3575 -1.7167 -0.4742 0 0 -3.18055e-015 -1.42 -1.8761 1.4223 -4.77083e-015 3.18055e-015 -9.54166e-015 -1.1471 -3.4929 2.6334 -6.36111e-015 1.59028e-015 -3.18055e-015 -0.823 -2.3 1.6571 4.77083e-015 -3.18055e-015 -0 -2.2603 21.606 7.4023 -2.23426 5.62536 1.25789 -13.5187 -1.1334 -5.0155 -0.654451 28.2052 -21.0915 0.0994 -28.0499 -0.2431 145.013 -71.3614 151.702 -0.0679 -23.3996 -0.1402 -4.43079 -9.1326 -14.5845 -0.7932 -9.0691 2.5189 -7.95139e-016 -6.36111e-015 -1.39149e-015 0.8272 -3.3923 0.5977 -6.3882e-007 -3.02103e-006 -2.53664e-006 0.565 -2.3158 0.4082 -9.7523e-006 2.58263e-006 8.12807e-006 -0.916 -9.2044 0.2193 -7.95139e-016 -6.36111e-015 -1.39149e-015 -0.0117 -4.1944 -0.0248 0.0129577 0.00232414 -7.75979e-005 -0.0071 -2.3249 -0.0142 1.98785e-015 3.18055e-015 -1.98785e-015 -0.6113 -8.7231 -2.0637 -7.95139e-016 -6.36111e-015 -1.39149e-015 0.1927 -3.8059 -0.2383 0.0163119 0.00303178 -0.000874508 0.1091 -2.1688 -0.1362 7.95139e-016 3.18055e-015 -5.96354e-016 0.6151 -8.0947 -3.564 -7.95139e-016 -6.36111e-015 -1.39149e-015 0.4882 -2.341 -0.6462 0.0145601 0.00367292 -0.00325485 0.3574 -1.7166 -0.4742 -1.19271e-015 3.18055e-015 -5.96354e-016 1.4199 -1.8761 1.4221 -7.95139e-016 -6.36111e-015 -1.39149e-015 1.1472 -3.4929 2.6336 -6.3882e-007 -3.02103e-006 -2.53664e-006 0.8229 -2.3 1.6571 -9.7523e-006 2.58263e-006 8.12807e-006 -9.412 3.9771 -0.7758 -30.3567 -52.4493 -38.9804 -0.7531 -40.938 1.77636e-015 12.9039 75.9692 -13.7238 1.77636e-015 -40.1986 7.10543e-015 -6.86322 7.83785 -1.08674 0 -4.4182 9.239 2.38542e-015 1.54323e-008 -0 9.4119 3.9773 -0.7758 36.4712 -51.4834 69.874 0.7532 -40.9383 3.55271e-015 -132.102 62.064 136.583 3.55271e-015 -40.1986 0 3.22998 11.1618 -6.30006 0 -4.4182 9.23901 -4.10896e-006 1.66337e-006 2.3253e-006 
